<?xml version="1.0" encoding="UTF-8"?>
<!DOCTYPE svg PUBLIC "-//W3C//DTD SVG 1.1//EN" "http://www.w3.org/Graphics/SVG/1.1/DTD/svg11.dtd">
<!-- Creator: CorelDRAW X7.4 EN Portable -->
<svg xmlns="http://www.w3.org/2000/svg" xml:space="preserve" width="43.3494mm" height="43.3494mm" version="1.1" style="shape-rendering:geometricPrecision; text-rendering:geometricPrecision; image-rendering:optimizeQuality; fill-rule:evenodd; clip-rule:evenodd"
viewBox="0 0 1278 1278"
 xmlns:xlink="http://www.w3.org/1999/xlink">
 <defs>
  <style type="text/css">
   <![CDATA[
    .fil1 {fill:none}
    .fil0 {fill:white}
   ]]>
  </style>
 </defs>
 <g id="Layer_x0020_1">
  <metadata id="CorelCorpID_0Corel-Layer"/>
  <path class="fil0" d="M252 1028c11,-4 28,-7 40,-10l163 -42c3,0 30,13 36,16 86,35 175,39 262,13 55,-16 98,-44 135,-73 34,-28 71,-75 92,-114 69,-128 60,-283 -22,-401 -13,-19 -32,-43 -47,-57 -23,-21 -30,-27 -57,-46 -66,-45 -158,-71 -244,-63 -65,6 -110,22 -158,48 -46,25 -83,59 -112,95 -88,105 -117,272 -45,413 12,25 12,17 6,38 -2,7 -4,14 -5,21 -5,18 -44,157 -44,162zm247 -570c-22,4 -42,33 -49,55 -14,42 1,89 24,122 36,54 71,98 127,135 35,23 111,54 158,50 27,-3 56,-23 66,-39 6,-9 10,-27 11,-40 1,-18 -5,-17 -25,-27 -12,-6 -63,-33 -74,-31 -6,1 -17,19 -24,28 -24,28 -21,29 -66,5 -33,-18 -62,-44 -83,-74 -29,-40 -24,-32 1,-65 10,-12 14,-18 6,-36 -7,-16 -24,-62 -31,-73 -4,-6 -7,-10 -16,-10 -6,-1 -20,-1 -25,0zm-155 478c30,-5 83,-22 117,-30 7,-2 9,2 15,5 39,22 72,35 124,43 51,7 103,-1 147,-16 29,-10 59,-26 83,-44 4,-3 8,-6 12,-9 5,-4 7,-7 11,-10 103,-87 137,-246 80,-369 -17,-38 -40,-73 -69,-100 -29,-27 -63,-51 -102,-67 -129,-53 -281,-14 -366,89 -60,73 -88,159 -73,257 8,45 25,89 46,122 9,14 8,10 3,29 -7,25 -24,81 -28,100z"/>
  <rect class="fil1" width="1278" height="1278"/>
 </g>
</svg>
